<svg width="159" height="44" viewBox="0 0 159 44" fill="none" xmlns="http://www.w3.org/2000/svg">
    <path d="M31.2394 9.05955C30.9834 9.82755 30.6474 10.8356 30.2314 12.0836C29.8474 13.2996 29.4154 14.6436 28.9354 16.1156C28.4554 17.5876 27.9594 19.1556 27.4474 20.8196C26.9354 22.4516 26.4074 24.0516 25.8634 25.6196C25.3514 27.1876 24.8394 28.6916 24.3274 30.1316C23.8154 31.5396 23.3514 32.7716 22.9354 33.8276C22.8074 34.0836 22.5354 34.2916 22.1194 34.4516C21.7354 34.5796 21.1114 34.6436 20.2474 34.6436C19.7034 34.6436 19.1434 34.6116 18.5674 34.5476C17.9914 34.4836 17.4474 34.3556 16.9354 34.1636C16.4554 33.9716 16.0234 33.7156 15.6394 33.3956C15.2874 33.0756 15.0154 32.6756 14.8234 32.1956C14.3434 30.5636 13.8794 28.7556 13.4314 26.7716C13.0154 24.7556 12.5994 22.7076 12.1834 20.6276C11.7674 18.5476 11.3514 16.5156 10.9354 14.5316C10.5514 12.5156 10.1514 10.6916 9.73538 9.05955C9.73538 9.50755 9.71938 10.2756 9.68738 11.3636C9.65538 12.4516 9.62338 13.7156 9.59138 15.1556C9.55938 16.5956 9.51138 18.1476 9.44738 19.8116C9.41538 21.4756 9.38338 23.1076 9.35138 24.7076C9.31938 26.2756 9.28738 27.7476 9.25538 29.1236C9.22338 30.4676 9.20738 31.5716 9.20738 32.4356C9.20738 33.3956 9.14338 34.0036 9.01538 34.2596C8.91938 34.5156 8.72738 34.6436 8.43938 34.6436H5.79938C3.97538 34.6436 2.67938 34.2916 1.91138 33.5876C1.17538 32.8516 0.807375 31.7796 0.807375 30.3716C0.807375 29.9876 0.823375 29.3476 0.855375 28.4516C0.919375 27.5236 0.999375 26.4356 1.09538 25.1876C1.19138 23.9396 1.28738 22.5796 1.38338 21.1076C1.51138 19.6036 1.63938 18.0836 1.76738 16.5476C1.92738 14.4676 2.05538 12.7396 2.15138 11.3636C2.27938 9.95555 2.37538 8.78755 2.43938 7.85955C2.50338 6.93155 2.55138 6.17955 2.58338 5.60355C2.64738 5.02755 2.67938 4.51555 2.67938 4.06755C2.71138 3.61955 2.72738 3.20355 2.72738 2.81955C2.75938 2.40355 2.77538 1.89155 2.77538 1.28355C2.77538 1.02755 2.87138 0.851554 3.06338 0.755553C3.25538 0.627553 3.43138 0.563553 3.59138 0.563553H10.3114C11.5594 0.563553 12.5834 0.771553 13.3834 1.18755C14.1834 1.57155 14.8394 2.17955 15.3514 3.01155C15.8634 3.84355 16.2794 4.93155 16.5994 6.27555C16.9194 7.58755 17.2074 9.15555 17.4634 10.9796C17.7514 12.8036 18.0554 14.9156 18.3754 17.3156C18.7274 19.6836 19.1754 22.3556 19.7194 25.3316C20.2314 23.3476 20.6634 21.6996 21.0154 20.3876C21.3674 19.0756 21.6554 17.9876 21.8794 17.1236C22.1354 16.2276 22.3434 15.4916 22.5034 14.9156C22.6634 14.3396 22.8074 13.8116 22.9354 13.3316C23.0634 12.8196 23.2074 12.2756 23.3674 11.6996C23.5274 11.1236 23.7194 10.4036 23.9434 9.53955C24.1674 8.67555 24.4394 7.60355 24.7594 6.32355C25.1114 5.01155 25.5434 3.36355 26.0554 1.37955C26.1194 1.18755 26.2314 1.01155 26.3914 0.851552C26.5514 0.659553 26.8394 0.563553 27.2554 0.563553H34.7434C35.7674 0.563553 36.5834 0.675553 37.1914 0.899554C37.8314 1.09155 38.3274 1.37955 38.6794 1.76355C39.0314 2.14755 39.2714 2.62755 39.3994 3.20355C39.5274 3.74755 39.5914 4.38755 39.5914 5.12355C39.5914 5.85955 39.5434 7.05955 39.4474 8.72355C39.3834 10.3556 39.2714 12.2116 39.1114 14.2916C38.9834 16.3396 38.8394 18.4676 38.6794 20.6756C38.5514 22.8836 38.4074 24.9316 38.2474 26.8196C38.1194 28.7076 38.0074 30.3076 37.9114 31.6196C37.8154 32.9316 37.7514 33.6996 37.7194 33.9236C37.6874 34.1796 37.6234 34.3716 37.5274 34.4996C37.4314 34.5956 37.2394 34.6436 36.9514 34.6436H34.3114C32.4874 34.6436 31.1914 34.2916 30.4234 33.5876C29.6874 32.8516 29.3194 31.9076 29.3194 30.7556C29.3194 30.4036 29.3514 29.7636 29.4154 28.8356C29.5114 27.9076 29.6234 26.8196 29.7514 25.5716C29.8794 24.3236 30.0234 22.9636 30.1834 21.4916C30.3434 19.9876 30.4874 18.4996 30.6154 17.0276C30.7434 15.5556 30.8554 14.1316 30.9514 12.7556C31.0794 11.3476 31.1754 10.1156 31.2394 9.05955ZM53.0891 12.3236C53.0891 12.9956 53.0251 13.9396 52.8971 15.1556C52.8011 16.3716 52.6891 17.6356 52.5611 18.9476C52.4651 20.2596 52.3531 21.4916 52.2251 22.6436C52.1291 23.7956 52.0811 24.6276 52.0811 25.1396C52.0811 26.2596 52.3531 27.1396 52.8971 27.7796C53.4731 28.3876 54.2571 28.6916 55.2491 28.6916C56.1131 28.6916 56.8331 28.3556 57.4091 27.6836C58.0171 26.9796 58.4971 26.0836 58.8491 24.9956C59.2331 23.8756 59.5371 22.6116 59.7611 21.2036C59.9851 19.7956 60.1451 18.3716 60.2411 16.9316C60.3691 15.4916 60.4651 14.0996 60.5291 12.7556C60.6251 11.3796 60.7211 10.1956 60.8171 9.20355C60.8491 8.94755 60.9451 8.72355 61.1051 8.53155C61.2651 8.33955 61.5211 8.24355 61.8731 8.24355H63.6011C64.5931 8.24355 65.3931 8.35555 66.0011 8.57955C66.6411 8.77155 67.1371 9.05955 67.4891 9.44355C67.8731 9.82755 68.1291 10.3076 68.2571 10.8836C68.4171 11.4276 68.4971 12.0676 68.4971 12.8036C68.4971 13.2836 68.4651 13.9716 68.4011 14.8676C68.3691 15.7316 68.2891 16.9476 68.1611 18.5156C68.0331 20.0516 67.8731 22.0196 67.6811 24.4196C67.5211 26.7876 67.3131 29.7316 67.0571 33.2516C66.9931 33.9236 66.9131 34.3236 66.8171 34.4516C66.7531 34.5796 66.4971 34.6436 66.0491 34.6436H64.1771C63.2171 34.6436 62.4171 34.5316 61.7771 34.3076C61.1691 34.0836 60.6731 33.7956 60.2891 33.4436C59.9051 33.0916 59.6331 32.6756 59.4731 32.1956C59.3131 31.7156 59.2171 31.2196 59.1851 30.7076C58.7051 31.5396 58.1611 32.2436 57.5531 32.8196C56.9771 33.3956 56.3691 33.8596 55.7291 34.2116C55.0891 34.5316 54.4331 34.7556 53.7611 34.8836C53.0891 35.0436 52.4331 35.1236 51.7931 35.1236C50.5771 35.1236 49.4891 34.9316 48.5291 34.5476C47.5691 34.1316 46.7531 33.5876 46.0811 32.9156C45.4411 32.2436 44.9451 31.4436 44.5931 30.5156C44.2411 29.5876 44.0651 28.5956 44.0651 27.5396C44.0651 27.1236 44.0811 26.4516 44.1131 25.5236C44.1771 24.5636 44.2411 23.4916 44.3051 22.3076C44.4011 21.1236 44.4971 19.8756 44.5931 18.5636C44.6891 17.2196 44.7691 15.9556 44.8331 14.7716C44.9291 13.5876 45.0091 12.5476 45.0731 11.6516C45.1691 10.7556 45.2331 10.1156 45.2651 9.73155C45.3291 9.15555 45.4571 8.77155 45.6491 8.57955C45.8411 8.35555 46.1611 8.24355 46.6091 8.24355H48.1451C49.1371 8.24355 49.9531 8.33955 50.5931 8.53155C51.2331 8.72355 51.7291 8.99555 52.0811 9.34755C52.4651 9.69955 52.7211 10.1316 52.8491 10.6436C53.0091 11.1236 53.0891 11.6836 53.0891 12.3236ZM88.3984 28.9796C87.5984 30.4196 86.6224 31.4916 85.4704 32.1956C84.3184 32.8676 82.8784 33.2036 81.1504 33.2036C79.8384 33.2036 78.6384 32.9956 77.5504 32.5796C76.4624 32.1636 75.5344 31.5076 74.7664 30.6116C73.9984 29.7156 73.3904 28.5956 72.9424 27.2516C72.5264 25.8756 72.3184 24.2436 72.3184 22.3556C72.3184 20.8196 72.4784 19.2036 72.7984 17.5076C73.1184 15.7796 73.6944 14.1956 74.5264 12.7556C75.3904 11.3156 76.5584 10.1316 78.0304 9.20355C79.5024 8.24355 81.3904 7.76355 83.6944 7.76355C84.6544 7.76355 85.4704 7.87555 86.1424 8.09955C86.8464 8.29155 87.4384 8.56355 87.9184 8.91555C88.4304 9.26755 88.8304 9.68355 89.1184 10.1636C89.4384 10.6436 89.6784 11.1556 89.8384 11.6996C89.8384 11.7316 89.8384 11.6196 89.8384 11.3636C89.8704 11.0756 89.9024 10.7556 89.9344 10.4036C89.9664 10.0516 89.9824 9.71555 89.9824 9.39555C90.0144 9.04355 90.0304 8.81955 90.0304 8.72355C90.0624 8.40355 90.2704 8.24355 90.6544 8.24355H92.8624C94.5264 8.24355 95.7264 8.59555 96.4624 9.29955C97.2304 9.97155 97.6144 11.2676 97.6144 13.1876C97.6144 13.4436 97.5984 14.0356 97.5664 14.9636C97.5344 15.8596 97.4704 16.9476 97.3744 18.2276C97.3104 19.5076 97.2144 20.9316 97.0864 22.4996C96.9584 24.0356 96.8144 25.5876 96.6544 27.1556C96.4944 28.7236 96.3184 30.2276 96.1264 31.6676C95.9344 33.1076 95.7264 34.3716 95.5024 35.4596C95.2784 36.5476 94.8944 37.6036 94.3504 38.6276C93.8064 39.6516 93.0384 40.5636 92.0464 41.3636C91.0544 42.1636 89.7744 42.8036 88.2064 43.2836C86.6704 43.7636 84.7824 44.0036 82.5424 44.0036C80.8464 44.0036 79.3584 43.8436 78.0784 43.5236C76.8304 43.2036 75.7904 42.7716 74.9584 42.2276C74.1264 41.7156 73.4864 41.1236 73.0384 40.4516C72.6224 39.7796 72.4144 39.1076 72.4144 38.4356C72.4144 37.8276 72.5424 37.2996 72.7984 36.8516C73.0544 36.4036 73.3904 36.0356 73.8064 35.7476C74.2224 35.4596 74.6704 35.2356 75.1504 35.0756C75.6624 34.9476 76.1424 34.8836 76.5904 34.8836C77.1344 34.8836 77.5344 35.0436 77.7904 35.3636C78.0464 35.6836 78.3344 36.0356 78.6544 36.4196C78.9744 36.8356 79.4224 37.2036 79.9984 37.5236C80.5744 37.8436 81.4704 38.0036 82.6864 38.0036C84.7984 38.0036 86.2704 37.2196 87.1024 35.6516C87.9664 34.1156 88.3984 31.8916 88.3984 28.9796ZM84.3664 26.8196C85.5184 26.8196 86.4144 26.5476 87.0544 26.0036C87.7264 25.4596 88.2384 24.8036 88.5904 24.0356C88.9424 23.2676 89.1664 22.4676 89.2624 21.6356C89.3584 20.8036 89.4064 20.0836 89.4064 19.4756C89.4064 17.5556 89.1024 16.1956 88.4944 15.3956C87.9184 14.5636 87.0384 14.1476 85.8544 14.1476C84.6704 14.1476 83.7424 14.4676 83.0704 15.1076C82.3984 15.7476 81.8864 16.5156 81.5344 17.4116C81.2144 18.2756 81.0064 19.1556 80.9104 20.0516C80.8144 20.9156 80.7664 21.5876 80.7664 22.0676C80.7664 23.6676 81.0384 24.8676 81.5824 25.6676C82.1264 26.4356 83.0544 26.8196 84.3664 26.8196ZM128.553 18.9956C128.457 19.9556 128.313 21.0276 128.121 22.2116C127.929 23.3636 127.625 24.5476 127.209 25.7636C126.825 26.9476 126.297 28.0996 125.625 29.2196C124.953 30.3396 124.089 31.3476 123.033 32.2436C121.977 33.1076 120.697 33.8116 119.193 34.3556C117.721 34.8676 115.961 35.1236 113.913 35.1236C111.833 35.1236 110.057 34.8356 108.585 34.2596C107.113 33.6516 105.913 32.8356 104.985 31.8116C104.057 30.7556 103.385 29.5396 102.969 28.1636C102.553 26.7876 102.345 25.3156 102.345 23.7476C102.345 23.0436 102.377 22.0996 102.441 20.9156C102.505 19.6996 102.585 18.3876 102.681 16.9796C102.809 15.5716 102.937 14.1156 103.065 12.6116C103.193 11.0756 103.305 9.61955 103.401 8.24355C103.529 6.86755 103.641 5.63555 103.737 4.54755C103.833 3.42755 103.897 2.57955 103.929 2.00355C103.961 1.39555 104.041 1.01155 104.169 0.851552C104.297 0.659553 104.489 0.563553 104.745 0.563553H107.385C109.337 0.563553 110.649 0.979553 111.321 1.81155C111.993 2.64355 112.329 3.87555 112.329 5.50755C112.329 5.60355 112.297 6.03555 112.233 6.80355C112.201 7.53955 112.137 8.45155 112.041 9.53955C111.977 10.6276 111.897 11.8116 111.801 13.0916C111.737 14.3716 111.657 15.5876 111.561 16.7396C111.497 17.8916 111.433 18.8996 111.369 19.7636C111.337 20.6276 111.321 21.2036 111.321 21.4916C111.321 22.0356 111.337 22.6596 111.369 23.3636C111.433 24.0676 111.561 24.7396 111.753 25.3796C111.977 26.0196 112.313 26.5636 112.761 27.0116C113.241 27.4276 113.913 27.6356 114.777 27.6356C115.865 27.6356 116.745 27.2676 117.417 26.5316C118.121 25.7956 118.649 24.9156 119.001 23.8916C119.385 22.8676 119.641 21.8276 119.769 20.7716C119.929 19.7156 120.041 18.8516 120.105 18.1796C120.233 16.5476 120.361 14.8676 120.489 13.1396C120.649 11.4116 120.777 9.79555 120.873 8.29155C121.001 6.78755 121.097 5.47555 121.161 4.35555C121.225 3.23555 121.257 2.46755 121.257 2.05155C121.257 1.41155 121.305 1.01155 121.401 0.851552C121.497 0.659553 121.705 0.563553 122.025 0.563553H124.665C125.753 0.563553 126.601 0.659553 127.209 0.851552C127.849 1.04355 128.329 1.29955 128.649 1.61955C128.969 1.93955 129.161 2.30755 129.225 2.72355C129.321 3.13955 129.369 3.57155 129.369 4.01955C129.369 4.43555 129.337 5.21955 129.273 6.37155C129.241 7.52355 129.193 8.83555 129.129 10.3076C129.065 11.7796 128.985 13.2996 128.889 14.8676C128.793 16.4356 128.681 17.8116 128.553 18.9956ZM149.826 7.76355C152.834 7.76355 155.09 8.69155 156.594 10.5476C158.13 12.4036 158.898 15.3316 158.898 19.3316C158.898 21.8276 158.61 24.0516 158.034 26.0036C157.458 27.9556 156.658 29.6196 155.634 30.9956C154.61 32.3396 153.41 33.3636 152.034 34.0676C150.658 34.7716 149.17 35.1236 147.57 35.1236C145.874 35.1236 144.546 34.7556 143.586 34.0196C142.626 33.2836 141.874 32.2436 141.33 30.8996C141.234 32.0516 141.154 32.9316 141.09 33.5396C141.026 34.1476 140.978 34.6276 140.946 34.9796C140.914 35.3636 140.882 35.6996 140.85 35.9876C140.85 36.2756 140.818 36.6596 140.754 37.1396C140.722 37.6196 140.674 38.2756 140.61 39.1076C140.546 39.9396 140.45 41.0916 140.322 42.5636C140.29 42.9476 140.21 43.2036 140.082 43.3316C139.954 43.4596 139.682 43.5236 139.266 43.5236H137.538C136.546 43.5236 135.73 43.4116 135.09 43.1876C134.482 42.9956 133.986 42.7076 133.602 42.3236C133.25 41.9396 132.994 41.4596 132.834 40.8836C132.706 40.3396 132.642 39.6996 132.642 38.9636C132.642 38.6436 132.69 37.7796 132.786 36.3716C132.882 34.9636 132.994 33.2836 133.122 31.3316C133.282 29.3476 133.442 27.2196 133.602 24.9476C133.794 22.6756 133.97 20.5156 134.13 18.4676C134.29 16.3876 134.418 14.5476 134.514 12.9476C134.642 11.3476 134.738 10.2436 134.802 9.63555C134.834 8.93155 134.914 8.51555 135.042 8.38755C135.138 8.29155 135.394 8.24355 135.81 8.24355H137.682C139.41 8.24355 140.658 8.61155 141.426 9.34755C142.226 10.0516 142.626 10.8996 142.626 11.8916C143.362 10.4196 144.306 9.36355 145.458 8.72355C146.642 8.08355 148.098 7.76355 149.826 7.76355ZM146.322 14.1476C144.69 14.1476 143.49 14.8516 142.722 16.2596C141.954 17.6676 141.57 19.5876 141.57 22.0196C141.57 22.8516 141.618 23.6676 141.714 24.4676C141.842 25.2676 142.05 25.9876 142.338 26.6276C142.626 27.2676 143.01 27.7796 143.49 28.1636C144.002 28.5476 144.642 28.7396 145.41 28.7396C146.786 28.7396 147.938 28.0676 148.866 26.7236C149.794 25.3796 150.258 23.2676 150.258 20.3876C150.258 19.5876 150.194 18.8196 150.066 18.0836C149.97 17.3156 149.778 16.6436 149.49 16.0676C149.202 15.4916 148.802 15.0276 148.29 14.6756C147.778 14.3236 147.122 14.1476 146.322 14.1476Z" fill="#5D4037"/>
</svg>